<mxfile host="app.diagrams.net" agent="Mozilla/5.0 (Windows NT 10.0; Win64; x64) AppleWebKit/537.36 (KHTML, like Gecko) Chrome/131.0.0.0 Safari/537.36" version="26.0.3">
  <diagram name="第 1 页" id="Xfgw7EuOcnmoPfBg-IBg">
    <mxGraphModel grid="1" page="1" gridSize="10" guides="1" tooltips="1" connect="1" arrows="1" fold="1" pageScale="1" pageWidth="827" pageHeight="1169" math="0" shadow="0">
      <root>
        <mxCell id="0" />
        <mxCell id="1" parent="0" />
        <mxCell id="uiYH5oaCj-dU2C9iDGIt-47" value="" style="whiteSpace=wrap;html=1;aspect=fixed;" vertex="1" parent="1">
          <mxGeometry x="-790" y="130" width="410" height="410" as="geometry" />
        </mxCell>
        <mxCell id="uiYH5oaCj-dU2C9iDGIt-42" value="" style="whiteSpace=wrap;html=1;aspect=fixed;" vertex="1" parent="1">
          <mxGeometry x="-370" y="390" width="350" height="350" as="geometry" />
        </mxCell>
        <mxCell id="uiYH5oaCj-dU2C9iDGIt-35" value="" style="whiteSpace=wrap;html=1;aspect=fixed;" vertex="1" parent="1">
          <mxGeometry x="-370" y="60" width="310" height="310" as="geometry" />
        </mxCell>
        <mxCell id="uiYH5oaCj-dU2C9iDGIt-6" value="" style="rounded=1;whiteSpace=wrap;html=1;" vertex="1" parent="1">
          <mxGeometry x="-720" y="200" width="240" height="290" as="geometry" />
        </mxCell>
        <mxCell id="uiYH5oaCj-dU2C9iDGIt-1" value="投訴" style="ellipse;whiteSpace=wrap;html=1;" vertex="1" parent="1">
          <mxGeometry x="-680" y="350" width="120" height="80" as="geometry" />
        </mxCell>
        <mxCell id="uiYH5oaCj-dU2C9iDGIt-2" value="充電" style="ellipse;whiteSpace=wrap;html=1;" vertex="1" parent="1">
          <mxGeometry x="-680" y="240" width="120" height="80" as="geometry" />
        </mxCell>
        <mxCell id="uiYH5oaCj-dU2C9iDGIt-3" value="業主" style="shape=umlActor;verticalLabelPosition=bottom;verticalAlign=top;html=1;outlineConnect=0;" vertex="1" parent="1">
          <mxGeometry x="-770" y="290" width="30" height="60" as="geometry" />
        </mxCell>
        <mxCell id="uiYH5oaCj-dU2C9iDGIt-4" value="" style="endArrow=classic;html=1;rounded=0;entryX=0;entryY=0.5;entryDx=0;entryDy=0;" edge="1" parent="1" target="uiYH5oaCj-dU2C9iDGIt-2">
          <mxGeometry width="50" height="50" relative="1" as="geometry">
            <mxPoint x="-740" y="310" as="sourcePoint" />
            <mxPoint x="-690" y="260" as="targetPoint" />
          </mxGeometry>
        </mxCell>
        <mxCell id="uiYH5oaCj-dU2C9iDGIt-5" value="" style="endArrow=classic;html=1;rounded=0;exitX=1;exitY=1;exitDx=0;exitDy=0;exitPerimeter=0;entryX=0;entryY=0.5;entryDx=0;entryDy=0;" edge="1" parent="1" source="uiYH5oaCj-dU2C9iDGIt-3" target="uiYH5oaCj-dU2C9iDGIt-1">
          <mxGeometry width="50" height="50" relative="1" as="geometry">
            <mxPoint x="-560" y="490" as="sourcePoint" />
            <mxPoint x="-510" y="440" as="targetPoint" />
          </mxGeometry>
        </mxCell>
        <mxCell id="uiYH5oaCj-dU2C9iDGIt-7" value="網訊公司" style="shape=umlActor;verticalLabelPosition=bottom;verticalAlign=top;html=1;outlineConnect=0;" vertex="1" parent="1">
          <mxGeometry x="-443" y="230" width="30" height="60" as="geometry" />
        </mxCell>
        <mxCell id="uiYH5oaCj-dU2C9iDGIt-8" value="充電桩管理中心" style="shape=umlActor;verticalLabelPosition=bottom;verticalAlign=top;html=1;outlineConnect=0;" vertex="1" parent="1">
          <mxGeometry x="-443" y="360" width="30" height="60" as="geometry" />
        </mxCell>
        <mxCell id="uiYH5oaCj-dU2C9iDGIt-9" value="" style="endArrow=classic;html=1;rounded=0;" edge="1" parent="1">
          <mxGeometry width="50" height="50" relative="1" as="geometry">
            <mxPoint x="-560" y="390" as="sourcePoint" />
            <mxPoint x="-450" y="410" as="targetPoint" />
          </mxGeometry>
        </mxCell>
        <mxCell id="uiYH5oaCj-dU2C9iDGIt-10" value="" style="endArrow=classic;html=1;rounded=0;entryX=0;entryY=1;entryDx=0;entryDy=0;entryPerimeter=0;" edge="1" parent="1" target="uiYH5oaCj-dU2C9iDGIt-7">
          <mxGeometry width="50" height="50" relative="1" as="geometry">
            <mxPoint x="-560" y="390" as="sourcePoint" />
            <mxPoint x="-510" y="340" as="targetPoint" />
          </mxGeometry>
        </mxCell>
        <mxCell id="uiYH5oaCj-dU2C9iDGIt-11" value="" style="endArrow=classic;html=1;rounded=0;entryX=0;entryY=0.3333333333333333;entryDx=0;entryDy=0;entryPerimeter=0;" edge="1" parent="1" target="uiYH5oaCj-dU2C9iDGIt-7">
          <mxGeometry width="50" height="50" relative="1" as="geometry">
            <mxPoint x="-560" y="280" as="sourcePoint" />
            <mxPoint x="-510" y="230" as="targetPoint" />
          </mxGeometry>
        </mxCell>
        <mxCell id="uiYH5oaCj-dU2C9iDGIt-12" value="" style="endArrow=classic;html=1;rounded=0;entryX=0;entryY=0.3333333333333333;entryDx=0;entryDy=0;entryPerimeter=0;" edge="1" parent="1" target="uiYH5oaCj-dU2C9iDGIt-8">
          <mxGeometry width="50" height="50" relative="1" as="geometry">
            <mxPoint x="-560" y="280" as="sourcePoint" />
            <mxPoint x="-510" y="230" as="targetPoint" />
          </mxGeometry>
        </mxCell>
        <mxCell id="uiYH5oaCj-dU2C9iDGIt-14" value="碧桂圓物業管理公司&lt;span style=&quot;text-wrap-mode: nowrap;&quot;&gt;充電桩運營中心&lt;/span&gt;" style="text;html=1;align=center;verticalAlign=middle;whiteSpace=wrap;rounded=0;" vertex="1" parent="1">
          <mxGeometry x="-700" y="210" width="200" height="30" as="geometry" />
        </mxCell>
        <mxCell id="uiYH5oaCj-dU2C9iDGIt-15" value="" style="verticalLabelPosition=bottom;verticalAlign=top;html=1;shape=mxgraph.basic.x;fillColor=#FF051E;strokeColor=#FF0A0A;" vertex="1" parent="1">
          <mxGeometry x="-670" y="400" width="40" height="50" as="geometry" />
        </mxCell>
        <mxCell id="uiYH5oaCj-dU2C9iDGIt-16" value="" style="rounded=1;whiteSpace=wrap;html=1;" vertex="1" parent="1">
          <mxGeometry x="-320" y="100" width="210" height="190" as="geometry" />
        </mxCell>
        <mxCell id="uiYH5oaCj-dU2C9iDGIt-25" value="" style="edgeStyle=orthogonalEdgeStyle;rounded=0;orthogonalLoop=1;jettySize=auto;html=1;" edge="1" parent="1" source="uiYH5oaCj-dU2C9iDGIt-17" target="uiYH5oaCj-dU2C9iDGIt-18">
          <mxGeometry relative="1" as="geometry" />
        </mxCell>
        <mxCell id="uiYH5oaCj-dU2C9iDGIt-17" value="業主" style="shape=umlActor;verticalLabelPosition=bottom;verticalAlign=top;html=1;outlineConnect=0;" vertex="1" parent="1">
          <mxGeometry x="-360" y="190" width="30" height="60" as="geometry" />
        </mxCell>
        <mxCell id="uiYH5oaCj-dU2C9iDGIt-18" value="充電" style="ellipse;whiteSpace=wrap;html=1;" vertex="1" parent="1">
          <mxGeometry x="-270" y="180" width="120" height="80" as="geometry" />
        </mxCell>
        <mxCell id="uiYH5oaCj-dU2C9iDGIt-19" value="兩輪電動車&lt;span style=&quot;text-wrap-mode: nowrap;&quot;&gt;充電桩運營中心&lt;/span&gt;" style="text;html=1;align=center;verticalAlign=middle;whiteSpace=wrap;rounded=0;" vertex="1" parent="1">
          <mxGeometry x="-300" y="110" width="190" height="30" as="geometry" />
        </mxCell>
        <mxCell id="uiYH5oaCj-dU2C9iDGIt-21" value="支付公司" style="shape=umlActor;verticalLabelPosition=bottom;verticalAlign=top;html=1;outlineConnect=0;" vertex="1" parent="1">
          <mxGeometry x="-100" y="240" width="30" height="60" as="geometry" />
        </mxCell>
        <mxCell id="uiYH5oaCj-dU2C9iDGIt-22" value="" style="endArrow=classic;html=1;rounded=0;" edge="1" parent="1" source="uiYH5oaCj-dU2C9iDGIt-20">
          <mxGeometry width="50" height="50" relative="1" as="geometry">
            <mxPoint x="-150" y="220" as="sourcePoint" />
            <mxPoint x="-70" y="170" as="targetPoint" />
          </mxGeometry>
        </mxCell>
        <mxCell id="uiYH5oaCj-dU2C9iDGIt-26" value="" style="rounded=1;whiteSpace=wrap;html=1;" vertex="1" parent="1">
          <mxGeometry x="-310" y="430" width="210" height="220" as="geometry" />
        </mxCell>
        <mxCell id="uiYH5oaCj-dU2C9iDGIt-27" value="投訴" style="ellipse;whiteSpace=wrap;html=1;" vertex="1" parent="1">
          <mxGeometry x="-270" y="500" width="120" height="80" as="geometry" />
        </mxCell>
        <mxCell id="uiYH5oaCj-dU2C9iDGIt-44" value="" style="edgeStyle=orthogonalEdgeStyle;rounded=0;orthogonalLoop=1;jettySize=auto;html=1;" edge="1" parent="1" source="uiYH5oaCj-dU2C9iDGIt-28" target="uiYH5oaCj-dU2C9iDGIt-27">
          <mxGeometry relative="1" as="geometry" />
        </mxCell>
        <mxCell id="uiYH5oaCj-dU2C9iDGIt-28" value="業主" style="shape=umlActor;verticalLabelPosition=bottom;verticalAlign=top;html=1;outlineConnect=0;" vertex="1" parent="1">
          <mxGeometry x="-360" y="510" width="30" height="60" as="geometry" />
        </mxCell>
        <mxCell id="uiYH5oaCj-dU2C9iDGIt-29" value="網訊公司" style="shape=umlActor;verticalLabelPosition=bottom;verticalAlign=top;html=1;outlineConnect=0;" vertex="1" parent="1">
          <mxGeometry x="-70" y="470" width="30" height="60" as="geometry" />
        </mxCell>
        <mxCell id="uiYH5oaCj-dU2C9iDGIt-30" value="支付公司" style="shape=umlActor;verticalLabelPosition=bottom;verticalAlign=top;html=1;outlineConnect=0;" vertex="1" parent="1">
          <mxGeometry x="-60" y="550" width="30" height="60" as="geometry" />
        </mxCell>
        <mxCell id="uiYH5oaCj-dU2C9iDGIt-31" value="" style="endArrow=classic;html=1;rounded=0;entryX=0;entryY=0.3333333333333333;entryDx=0;entryDy=0;entryPerimeter=0;exitX=1;exitY=0;exitDx=0;exitDy=0;" edge="1" parent="1" source="uiYH5oaCj-dU2C9iDGIt-27" target="uiYH5oaCj-dU2C9iDGIt-29">
          <mxGeometry width="50" height="50" relative="1" as="geometry">
            <mxPoint x="-145" y="480" as="sourcePoint" />
            <mxPoint x="-35" y="400" as="targetPoint" />
          </mxGeometry>
        </mxCell>
        <mxCell id="uiYH5oaCj-dU2C9iDGIt-32" value="" style="endArrow=classic;html=1;rounded=0;entryX=0;entryY=0.3333333333333333;entryDx=0;entryDy=0;entryPerimeter=0;exitX=0.95;exitY=0.713;exitDx=0;exitDy=0;exitPerimeter=0;" edge="1" parent="1" source="uiYH5oaCj-dU2C9iDGIt-27" target="uiYH5oaCj-dU2C9iDGIt-30">
          <mxGeometry width="50" height="50" relative="1" as="geometry">
            <mxPoint x="-150" y="500" as="sourcePoint" />
            <mxPoint x="-22" y="492" as="targetPoint" />
          </mxGeometry>
        </mxCell>
        <mxCell id="uiYH5oaCj-dU2C9iDGIt-33" value="兩輪電動車&lt;span style=&quot;text-wrap-mode: nowrap;&quot;&gt;充電桩運營中心--客服部&lt;/span&gt;" style="text;html=1;align=center;verticalAlign=middle;whiteSpace=wrap;rounded=0;" vertex="1" parent="1">
          <mxGeometry x="-300" y="460" width="190" height="30" as="geometry" />
        </mxCell>
        <mxCell id="uiYH5oaCj-dU2C9iDGIt-38" value="" style="endArrow=classic;html=1;rounded=0;" edge="1" parent="1" target="uiYH5oaCj-dU2C9iDGIt-20">
          <mxGeometry width="50" height="50" relative="1" as="geometry">
            <mxPoint x="-150" y="220" as="sourcePoint" />
            <mxPoint x="-70" y="170" as="targetPoint" />
          </mxGeometry>
        </mxCell>
        <mxCell id="uiYH5oaCj-dU2C9iDGIt-20" value="網訊公司" style="shape=umlActor;verticalLabelPosition=bottom;verticalAlign=top;html=1;outlineConnect=0;" vertex="1" parent="1">
          <mxGeometry x="-100" y="140" width="30" height="60" as="geometry" />
        </mxCell>
        <mxCell id="uiYH5oaCj-dU2C9iDGIt-40" value="" style="endArrow=classic;html=1;rounded=0;entryX=0;entryY=0.3333333333333333;entryDx=0;entryDy=0;entryPerimeter=0;" edge="1" parent="1" target="uiYH5oaCj-dU2C9iDGIt-21">
          <mxGeometry width="50" height="50" relative="1" as="geometry">
            <mxPoint x="-150" y="230" as="sourcePoint" />
            <mxPoint x="-100" y="180" as="targetPoint" />
          </mxGeometry>
        </mxCell>
        <mxCell id="uiYH5oaCj-dU2C9iDGIt-45" value="" style="verticalLabelPosition=bottom;verticalAlign=top;html=1;shape=mxgraph.basic.tick;fillColor=#ffe6cc;strokeColor=#d79b00;" vertex="1" parent="1">
          <mxGeometry x="-170" y="550" width="60" height="50" as="geometry" />
        </mxCell>
        <mxCell id="uiYH5oaCj-dU2C9iDGIt-46" value="" style="verticalLabelPosition=bottom;verticalAlign=top;html=1;shape=mxgraph.basic.tick;fillColor=#ffe6cc;strokeColor=#d79b00;" vertex="1" parent="1">
          <mxGeometry x="-170" y="230" width="60" height="50" as="geometry" />
        </mxCell>
      </root>
    </mxGraphModel>
  </diagram>
</mxfile>
